<?xml version="1.0" encoding="UTF-8" standalone="no"?><svg xmlns="http://www.w3.org/2000/svg" xmlns:xlink="http://www.w3.org/1999/xlink" contentStyleType="text/css" height="686px" preserveAspectRatio="none" style="width:3256px;height:686px;background:#FFFFFF;" version="1.1" viewBox="0 0 3256 686" width="3256px" zoomAndPan="magnify"><defs/><g><!--class LineaPedidoTableViewCellDelegate--><g id="elem_LineaPedidoTableViewCellDelegate"><rect codeLine="7" fill="#F1F1F1" height="64.5625" id="LineaPedidoTableViewCellDelegate" rx="2.5" ry="2.5" style="stroke:#181818;stroke-width:0.5;" width="305" x="9" y="254"/><ellipse cx="32.55" cy="274.1328" fill="#DAA520" rx="11" ry="11" style="stroke:#181818;stroke-width:1.0;"/><path d="M32.0969,275.7266 L33.7688,275.7266 C35.3469,275.7266 36.1906,275.4453 36.9406,274.6172 C37.4875,274.0234 37.8,273.2109 37.8,272.4297 C37.8,270.5547 36.2688,269.2266 34.0969,269.2266 L30.1437,269.2266 C29.7062,269.2266 29.5812,269.2422 29.425,269.3359 C29.175,269.4922 29.0187,269.7891 29.0187,270.0703 C29.0187,270.3203 29.1594,270.6016 29.3781,270.7734 C29.5344,270.8828 29.7219,270.9141 30.1437,270.9141 L30.3937,270.9141 L30.3937,277.4297 L30.1437,277.4297 C29.7375,277.4297 29.5812,277.4453 29.425,277.5547 C29.175,277.7109 29.0187,277.9922 29.0187,278.2891 C29.0187,278.5391 29.1594,278.8047 29.3781,278.9609 C29.5187,279.0859 29.7531,279.1328 30.1437,279.1328 L33.7844,279.1328 C34.1281,279.1328 34.3781,279.0859 34.4875,279.0078 C34.7531,278.8672 34.9094,278.5703 34.9094,278.2891 C34.9094,278.0078 34.7688,277.7578 34.55,277.5859 C34.3781,277.4609 34.2375,277.4297 33.7844,277.4297 L32.0969,277.4297 L32.0969,275.7266 Z M32.0969,270.9141 L34.0969,270.9141 C35.2844,270.9141 35.9875,271.5234 35.9875,272.4922 C35.9875,273.4453 35.2844,274.0391 34.0969,274.0391 L32.0969,274.0391 L32.0969,270.9141 Z " fill="#000000"/><text fill="#000000" font-family="sans-serif" font-size="12" font-style="italic" lengthAdjust="spacing" textLength="63" x="143.95" y="270.1387">«protocol»</text><text fill="#000000" font-family="sans-serif" font-size="14" lengthAdjust="spacing" textLength="254" x="48.45" y="285.9639">LineaPedidoTableViewCellDelegate</text><line style="stroke:#181818;stroke-width:0.5;" x1="10" x2="313" y1="294.2656" y2="294.2656"/><polygon fill="#4177AF" points="20,303.9141,16,309.9141,24,309.9141" style="stroke:#1963A0;stroke-width:1.0;"/><text fill="#000000" font-family="sans-serif" font-size="14" lengthAdjust="spacing" textLength="279" x="29" y="311.2607">cantidadCambiada(posLinea:cantidad:)</text></g><!--class PlatoTableViewCellDelegate--><g id="elem_PlatoTableViewCellDelegate"><rect codeLine="10" fill="#F1F1F1" height="64.5625" id="PlatoTableViewCellDelegate" rx="2.5" ry="2.5" style="stroke:#181818;stroke-width:0.5;" width="236" x="773.5" y="254"/><ellipse cx="788.5" cy="274.1328" fill="#DAA520" rx="11" ry="11" style="stroke:#181818;stroke-width:1.0;"/><path d="M788.0469,275.7266 L789.7188,275.7266 C791.2969,275.7266 792.1406,275.4453 792.8906,274.6172 C793.4375,274.0234 793.75,273.2109 793.75,272.4297 C793.75,270.5547 792.2188,269.2266 790.0469,269.2266 L786.0938,269.2266 C785.6563,269.2266 785.5313,269.2422 785.375,269.3359 C785.125,269.4922 784.9688,269.7891 784.9688,270.0703 C784.9688,270.3203 785.1094,270.6016 785.3281,270.7734 C785.4844,270.8828 785.6719,270.9141 786.0938,270.9141 L786.3438,270.9141 L786.3438,277.4297 L786.0938,277.4297 C785.6875,277.4297 785.5313,277.4453 785.375,277.5547 C785.125,277.7109 784.9688,277.9922 784.9688,278.2891 C784.9688,278.5391 785.1094,278.8047 785.3281,278.9609 C785.4688,279.0859 785.7031,279.1328 786.0938,279.1328 L789.7344,279.1328 C790.0781,279.1328 790.3281,279.0859 790.4375,279.0078 C790.7031,278.8672 790.8594,278.5703 790.8594,278.2891 C790.8594,278.0078 790.7188,277.7578 790.5,277.5859 C790.3281,277.4609 790.1875,277.4297 789.7344,277.4297 L788.0469,277.4297 L788.0469,275.7266 Z M788.0469,270.9141 L790.0469,270.9141 C791.2344,270.9141 791.9375,271.5234 791.9375,272.4922 C791.9375,273.4453 791.2344,274.0391 790.0469,274.0391 L788.0469,274.0391 L788.0469,270.9141 Z " fill="#000000"/><text fill="#000000" font-family="sans-serif" font-size="12" font-style="italic" lengthAdjust="spacing" textLength="63" x="873" y="270.1387">«protocol»</text><text fill="#000000" font-family="sans-serif" font-size="14" lengthAdjust="spacing" textLength="204" x="802.5" y="285.9639">PlatoTableViewCellDelegate</text><line style="stroke:#181818;stroke-width:0.5;" x1="774.5" x2="1008.5" y1="294.2656" y2="294.2656"/><polygon fill="#4177AF" points="784.5,303.9141,780.5,309.9141,788.5,309.9141" style="stroke:#1963A0;stroke-width:1.0;"/><text fill="#000000" font-family="sans-serif" font-size="14" lengthAdjust="spacing" textLength="183" x="793.5" y="311.2607">platoAñadido(indexPath:)</text></g><!--class LineaPedidoTableViewCell--><g id="elem_LineaPedidoTableViewCell"><rect codeLine="13" fill="#F1F1F1" height="178.375" id="LineaPedidoTableViewCell" rx="2.5" ry="2.5" style="stroke:#181818;stroke-width:0.5;" width="364" x="1291.5" y="197.5"/><ellipse cx="1375.25" cy="213.5" fill="#8FBC8F" rx="11" ry="11" style="stroke:#181818;stroke-width:1.0;"/><path d="M1377.5938,209.1719 C1376.6563,208.7344 1376.0625,208.5938 1375.1875,208.5938 C1372.5625,208.5938 1370.5625,210.6719 1370.5625,213.3906 L1370.5625,214.5156 C1370.5625,217.0938 1372.6719,218.9844 1375.5625,218.9844 C1376.7813,218.9844 1377.9375,218.6875 1378.6875,218.1406 C1379.2656,217.7344 1379.5938,217.2813 1379.5938,216.8906 C1379.5938,216.4375 1379.2031,216.0469 1378.7344,216.0469 C1378.5156,216.0469 1378.3125,216.125 1378.125,216.3125 C1377.6719,216.7969 1377.6719,216.7969 1377.4844,216.8906 C1377.0625,217.1563 1376.375,217.2813 1375.6094,217.2813 C1373.5625,217.2813 1372.2656,216.1875 1372.2656,214.4844 L1372.2656,213.3906 C1372.2656,211.6094 1373.5156,210.2969 1375.25,210.2969 C1375.8281,210.2969 1376.4375,210.4531 1376.9063,210.7031 C1377.3906,210.9844 1377.5625,211.2031 1377.6563,211.6094 C1377.7188,212.0156 1377.75,212.1406 1377.8906,212.2656 C1378.0313,212.4063 1378.2656,212.5156 1378.4844,212.5156 C1378.75,212.5156 1379.0156,212.375 1379.1875,212.1563 C1379.2969,212 1379.3281,211.8125 1379.3281,211.3906 L1379.3281,209.9688 C1379.3281,209.5313 1379.3125,209.4063 1379.2188,209.25 C1379.0625,208.9844 1378.7813,208.8438 1378.4844,208.8438 C1378.1875,208.8438 1377.9844,208.9375 1377.7656,209.25 L1377.5938,209.1719 Z " fill="#000000"/><text fill="#000000" font-family="sans-serif" font-size="14" lengthAdjust="spacing" textLength="188" x="1395.75" y="218.3467">LineaPedidoTableViewCell</text><line style="stroke:#181818;stroke-width:0.5;" x1="1292.5" x2="1654.5" y1="229.5" y2="229.5"/><polygon fill="none" points="1302.5,239.1484,1298.5,245.1484,1306.5,245.1484" style="stroke:#1963A0;stroke-width:1.0;"/><text fill="#000000" font-family="sans-serif" font-size="14" lengthAdjust="spacing" textLength="166" x="1311.5" y="246.4951">nombreLabel : UILabel!</text><polygon fill="none" points="1302.5,255.4453,1298.5,261.4453,1306.5,261.4453" style="stroke:#1963A0;stroke-width:1.0;"/><text fill="#000000" font-family="sans-serif" font-size="14" lengthAdjust="spacing" textLength="171" x="1311.5" y="262.792">cantidadLabel : UILabel!</text><polygon fill="none" points="1302.5,271.7422,1298.5,277.7422,1306.5,277.7422" style="stroke:#1963A0;stroke-width:1.0;"/><text fill="#000000" font-family="sans-serif" font-size="14" lengthAdjust="spacing" textLength="149" x="1311.5" y="279.0889">stepper : UIStepper!</text><polygon fill="none" points="1302.5,288.0391,1298.5,294.0391,1306.5,294.0391" style="stroke:#1963A0;stroke-width:1.0;"/><text fill="#000000" font-family="sans-serif" font-size="14" lengthAdjust="spacing" textLength="59" x="1311.5" y="295.3857">pos : Int</text><polygon fill="none" points="1302.5,304.3359,1298.5,310.3359,1306.5,310.3359" style="stroke:#1963A0;stroke-width:1.0;"/><text fill="#000000" font-family="sans-serif" font-size="14" lengthAdjust="spacing" textLength="338" x="1311.5" y="311.6826">delegate : LineaPedidoTableViewCellDelegate?</text><line style="stroke:#181818;stroke-width:0.5;" x1="1292.5" x2="1654.5" y1="318.9844" y2="318.9844"/><polygon fill="#4177AF" points="1302.5,328.6328,1298.5,334.6328,1306.5,334.6328" style="stroke:#1963A0;stroke-width:1.0;"/><text fill="#000000" font-family="sans-serif" font-size="14" lengthAdjust="spacing" textLength="134" x="1311.5" y="335.9795">stepperPulsado(_:)</text><polygon fill="#4177AF" points="1302.5,344.9297,1298.5,350.9297,1306.5,350.9297" style="stroke:#1963A0;stroke-width:1.0;"/><text fill="#000000" font-family="sans-serif" font-size="14" lengthAdjust="spacing" textLength="116" x="1311.5" y="352.2764">awakeFromNib()</text><polygon fill="#4177AF" points="1302.5,361.2266,1298.5,367.2266,1306.5,367.2266" style="stroke:#1963A0;stroke-width:1.0;"/><text fill="#000000" font-family="sans-serif" font-size="14" lengthAdjust="spacing" textLength="182" x="1311.5" y="368.5732">setSelected(_:animated:)</text></g><!--class PedidoActualViewController--><g id="elem_PedidoActualViewController"><rect codeLine="23" fill="#F1F1F1" height="210.9688" id="PedidoActualViewController" rx="2.5" ry="2.5" style="stroke:#181818;stroke-width:0.5;" width="305" x="11" y="469"/><ellipse cx="58.75" cy="485" fill="#8FBC8F" rx="11" ry="11" style="stroke:#181818;stroke-width:1.0;"/><path d="M61.0938,480.6719 C60.1563,480.2344 59.5625,480.0938 58.6875,480.0938 C56.0625,480.0938 54.0625,482.1719 54.0625,484.8906 L54.0625,486.0156 C54.0625,488.5938 56.1719,490.4844 59.0625,490.4844 C60.2813,490.4844 61.4375,490.1875 62.1875,489.6406 C62.7656,489.2344 63.0938,488.7813 63.0938,488.3906 C63.0938,487.9375 62.7031,487.5469 62.2344,487.5469 C62.0156,487.5469 61.8125,487.625 61.625,487.8125 C61.1719,488.2969 61.1719,488.2969 60.9844,488.3906 C60.5625,488.6563 59.875,488.7813 59.1094,488.7813 C57.0625,488.7813 55.7656,487.6875 55.7656,485.9844 L55.7656,484.8906 C55.7656,483.1094 57.0156,481.7969 58.75,481.7969 C59.3281,481.7969 59.9375,481.9531 60.4063,482.2031 C60.8906,482.4844 61.0625,482.7031 61.1563,483.1094 C61.2188,483.5156 61.25,483.6406 61.3906,483.7656 C61.5313,483.9063 61.7656,484.0156 61.9844,484.0156 C62.25,484.0156 62.5156,483.875 62.6875,483.6563 C62.7969,483.5 62.8281,483.3125 62.8281,482.8906 L62.8281,481.4688 C62.8281,481.0313 62.8125,480.9063 62.7188,480.75 C62.5625,480.4844 62.2813,480.3438 61.9844,480.3438 C61.6875,480.3438 61.4844,480.4375 61.2656,480.75 L61.0938,480.6719 Z " fill="#000000"/><text fill="#000000" font-family="sans-serif" font-size="14" lengthAdjust="spacing" textLength="201" x="79.25" y="489.8467">PedidoActualViewController</text><line style="stroke:#181818;stroke-width:0.5;" x1="12" x2="315" y1="501" y2="501"/><polygon fill="none" points="22,510.6484,18,516.6484,26,516.6484" style="stroke:#1963A0;stroke-width:1.0;"/><text fill="#000000" font-family="sans-serif" font-size="14" lengthAdjust="spacing" textLength="142" x="31" y="517.9951">tabla : UITableView!</text><polygon fill="none" points="22,526.9453,18,532.9453,26,532.9453" style="stroke:#1963A0;stroke-width:1.0;"/><text fill="#000000" font-family="sans-serif" font-size="14" lengthAdjust="spacing" textLength="144" x="31" y="534.292">totalLabel : UILabel!</text><polygon fill="none" points="22,543.2422,18,549.2422,26,549.2422" style="stroke:#1963A0;stroke-width:1.0;"/><text fill="#000000" font-family="sans-serif" font-size="14" lengthAdjust="spacing" textLength="146" x="31" y="550.5889">platoElegido : Plato!</text><line style="stroke:#181818;stroke-width:0.5;" x1="12" x2="315" y1="557.8906" y2="557.8906"/><polygon fill="#4177AF" points="22,567.5391,18,573.5391,26,573.5391" style="stroke:#1963A0;stroke-width:1.0;"/><text fill="#000000" font-family="sans-serif" font-size="14" lengthAdjust="spacing" textLength="178" x="31" y="574.8857">realizarPedidoPulsado(_:)</text><polygon fill="#4177AF" points="22,583.8359,18,589.8359,26,589.8359" style="stroke:#1963A0;stroke-width:1.0;"/><text fill="#000000" font-family="sans-serif" font-size="14" lengthAdjust="spacing" textLength="185" x="31" y="591.1826">cancelarPedidoPulsado(_:)</text><polygon fill="#4177AF" points="22,600.1328,18,606.1328,26,606.1328" style="stroke:#1963A0;stroke-width:1.0;"/><text fill="#000000" font-family="sans-serif" font-size="14" lengthAdjust="spacing" textLength="100" x="31" y="607.4795">viewDidLoad()</text><polygon fill="#4177AF" points="22,616.4297,18,622.4297,26,622.4297" style="stroke:#1963A0;stroke-width:1.0;"/><text fill="#000000" font-family="sans-serif" font-size="14" lengthAdjust="spacing" textLength="133" x="31" y="623.7764">viewWillAppear(_:)</text><polygon fill="#4177AF" points="22,632.7266,18,638.7266,26,638.7266" style="stroke:#1963A0;stroke-width:1.0;"/><text fill="#000000" font-family="sans-serif" font-size="14" lengthAdjust="spacing" textLength="277" x="31" y="640.0732">tableView(_:numberOfRowsInSection:)</text><polygon fill="#4177AF" points="22,649.0234,18,655.0234,26,655.0234" style="stroke:#1963A0;stroke-width:1.0;"/><text fill="#000000" font-family="sans-serif" font-size="14" lengthAdjust="spacing" textLength="194" x="31" y="656.3701">tableView(_:cellForRowAt:)</text><polygon fill="#4177AF" points="22,665.3203,18,671.3203,26,671.3203" style="stroke:#1963A0;stroke-width:1.0;"/><text fill="#000000" font-family="sans-serif" font-size="14" lengthAdjust="spacing" textLength="279" x="31" y="672.667">cantidadCambiada(posLinea:cantidad:)</text></g><!--class DatosPlato--><g id="elem_DatosPlato"><rect codeLine="35" fill="#F1F1F1" height="113.4531" id="DatosPlato" rx="2.5" ry="2.5" style="stroke:#181818;stroke-width:0.5;" width="166" x="2039.5" y="230"/><ellipse cx="2079.25" cy="250.1328" fill="#87CEEB" rx="11" ry="11" style="stroke:#181818;stroke-width:1.0;"/><path d="M2083.0313,246.1016 C2083.0313,245.6641 2083.0156,245.5234 2082.9219,245.3672 C2082.7813,245.1328 2082.5,244.9766 2082.2031,244.9766 C2081.8594,244.9766 2081.7188,245.1172 2081.5469,245.5391 C2080.9531,245.1641 2080.2031,244.9766 2079.3281,244.9766 C2077.2188,244.9766 2075.6406,246.2734 2075.6406,247.9922 C2075.6406,248.9609 2076.1719,249.8672 2077.0313,250.3516 C2077.5781,250.6641 2078.125,250.8359 2079.2344,251.0234 C2080.3906,251.2266 2080.6563,251.2891 2081.0156,251.4766 C2081.3906,251.6797 2081.625,252.0234 2081.625,252.3828 C2081.625,253.1172 2080.6406,253.6641 2079.3906,253.6641 C2078.2656,253.6641 2077.1875,253.1797 2077.0156,252.5703 C2076.8906,252.1016 2076.8906,252.1016 2076.7656,251.9922 C2076.6094,251.8359 2076.3906,251.7422 2076.1563,251.7422 C2075.875,251.7422 2075.625,251.8672 2075.4531,252.0859 C2075.3438,252.2578 2075.2969,252.4453 2075.2969,252.8672 L2075.2969,253.9922 C2075.2969,254.7578 2075.5781,255.1172 2076.1719,255.1172 C2076.4375,255.1172 2076.5625,255.0547 2076.8438,254.7109 C2077.6875,255.1484 2078.5781,255.3672 2079.5,255.3672 C2081.8281,255.3672 2083.3906,254.1797 2083.3906,252.4141 C2083.3906,251.5234 2083.0781,250.8359 2082.3906,250.2891 C2081.8594,249.8672 2081.2188,249.6172 2079.7344,249.3516 C2078.4688,249.1172 2078.375,249.0859 2078.0469,248.9141 C2077.6719,248.7266 2077.4063,248.3359 2077.4063,247.9766 C2077.4063,247.2422 2078.2656,246.6797 2079.3281,246.6797 C2080.3906,246.6797 2081.2031,247.1484 2081.3594,247.8203 C2081.4688,248.3672 2081.4688,248.3672 2081.5938,248.5078 C2081.7344,248.6328 2081.9688,248.7422 2082.2031,248.7422 C2082.4688,248.7422 2082.7188,248.6016 2082.8906,248.3828 C2083,248.2109 2083.0313,248.0703 2083.0313,247.6016 L2083.0313,246.1016 Z " fill="#000000"/><text fill="#000000" font-family="sans-serif" font-size="12" font-style="italic" lengthAdjust="spacing" textLength="50" x="2113.25" y="246.1387">«struct»</text><text fill="#000000" font-family="sans-serif" font-size="14" lengthAdjust="spacing" textLength="79" x="2098.75" y="261.9639">DatosPlato</text><line style="stroke:#181818;stroke-width:0.5;" x1="2040.5" x2="2204.5" y1="270.2656" y2="270.2656"/><polygon fill="none" points="2050.5,279.9141,2046.5,285.9141,2054.5,285.9141" style="stroke:#1963A0;stroke-width:1.0;"/><text fill="#000000" font-family="sans-serif" font-size="14" lengthAdjust="spacing" textLength="114" x="2059.5" y="287.2607">nombre : String</text><polygon fill="none" points="2050.5,296.2109,2046.5,302.2109,2054.5,302.2109" style="stroke:#1963A0;stroke-width:1.0;"/><text fill="#000000" font-family="sans-serif" font-size="14" lengthAdjust="spacing" textLength="140" x="2059.5" y="303.5576">descripcion : String</text><polygon fill="none" points="2050.5,312.5078,2046.5,318.5078,2054.5,318.5078" style="stroke:#1963A0;stroke-width:1.0;"/><text fill="#000000" font-family="sans-serif" font-size="14" lengthAdjust="spacing" textLength="110" x="2059.5" y="319.8545">precio : Double</text><polygon fill="none" points="2050.5,328.8047,2046.5,334.8047,2054.5,334.8047" style="stroke:#1963A0;stroke-width:1.0;"/><text fill="#000000" font-family="sans-serif" font-size="14" lengthAdjust="spacing" textLength="87" x="2059.5" y="336.1514">tipo : String</text></g><!--class JSONImporter--><g id="elem_JSONImporter"><rect codeLine="41" fill="#F1F1F1" height="56.2969" id="JSONImporter" rx="2.5" ry="2.5" style="stroke:#181818;stroke-width:0.5;" width="230" x="2203.5" y="27.5"/><ellipse cx="2264.75" cy="43.5" fill="#8FBC8F" rx="11" ry="11" style="stroke:#181818;stroke-width:1.0;"/><path d="M2267.0938,39.1719 C2266.1563,38.7344 2265.5625,38.5938 2264.6875,38.5938 C2262.0625,38.5938 2260.0625,40.6719 2260.0625,43.3906 L2260.0625,44.5156 C2260.0625,47.0938 2262.1719,48.9844 2265.0625,48.9844 C2266.2813,48.9844 2267.4375,48.6875 2268.1875,48.1406 C2268.7656,47.7344 2269.0938,47.2813 2269.0938,46.8906 C2269.0938,46.4375 2268.7031,46.0469 2268.2344,46.0469 C2268.0156,46.0469 2267.8125,46.125 2267.625,46.3125 C2267.1719,46.7969 2267.1719,46.7969 2266.9844,46.8906 C2266.5625,47.1563 2265.875,47.2813 2265.1094,47.2813 C2263.0625,47.2813 2261.7656,46.1875 2261.7656,44.4844 L2261.7656,43.3906 C2261.7656,41.6094 2263.0156,40.2969 2264.75,40.2969 C2265.3281,40.2969 2265.9375,40.4531 2266.4063,40.7031 C2266.8906,40.9844 2267.0625,41.2031 2267.1563,41.6094 C2267.2188,42.0156 2267.25,42.1406 2267.3906,42.2656 C2267.5313,42.4063 2267.7656,42.5156 2267.9844,42.5156 C2268.25,42.5156 2268.5156,42.375 2268.6875,42.1563 C2268.7969,42 2268.8281,41.8125 2268.8281,41.3906 L2268.8281,39.9688 C2268.8281,39.5313 2268.8125,39.4063 2268.7188,39.25 C2268.5625,38.9844 2268.2813,38.8438 2267.9844,38.8438 C2267.6875,38.8438 2267.4844,38.9375 2267.2656,39.25 L2267.0938,39.1719 Z " fill="#000000"/><text fill="#000000" font-family="sans-serif" font-size="14" lengthAdjust="spacing" textLength="99" x="2285.25" y="48.3467">JSONImporter</text><line style="stroke:#181818;stroke-width:0.5;" x1="2204.5" x2="2432.5" y1="59.5" y2="59.5"/><polygon fill="#4177AF" points="2214.5,69.1484,2210.5,75.1484,2218.5,75.1484" style="stroke:#1963A0;stroke-width:1.0;"/><text fill="#000000" font-family="sans-serif" font-size="14" lengthAdjust="spacing" textLength="204" x="2223.5" y="76.4951">importPlatosJSON(nomFich:)</text></g><!--class MainViewController--><g id="elem_MainViewController"><rect codeLine="44" fill="#F1F1F1" height="56.2969" id="MainViewController" rx="2.5" ry="2.5" style="stroke:#181818;stroke-width:0.5;" width="172" x="2467.5" y="258.5"/><ellipse cx="2482.5" cy="274.5" fill="#8FBC8F" rx="11" ry="11" style="stroke:#181818;stroke-width:1.0;"/><path d="M2484.8438,270.1719 C2483.9063,269.7344 2483.3125,269.5938 2482.4375,269.5938 C2479.8125,269.5938 2477.8125,271.6719 2477.8125,274.3906 L2477.8125,275.5156 C2477.8125,278.0938 2479.9219,279.9844 2482.8125,279.9844 C2484.0313,279.9844 2485.1875,279.6875 2485.9375,279.1406 C2486.5156,278.7344 2486.8438,278.2813 2486.8438,277.8906 C2486.8438,277.4375 2486.4531,277.0469 2485.9844,277.0469 C2485.7656,277.0469 2485.5625,277.125 2485.375,277.3125 C2484.9219,277.7969 2484.9219,277.7969 2484.7344,277.8906 C2484.3125,278.1563 2483.625,278.2813 2482.8594,278.2813 C2480.8125,278.2813 2479.5156,277.1875 2479.5156,275.4844 L2479.5156,274.3906 C2479.5156,272.6094 2480.7656,271.2969 2482.5,271.2969 C2483.0781,271.2969 2483.6875,271.4531 2484.1563,271.7031 C2484.6406,271.9844 2484.8125,272.2031 2484.9063,272.6094 C2484.9688,273.0156 2485,273.1406 2485.1406,273.2656 C2485.2813,273.4063 2485.5156,273.5156 2485.7344,273.5156 C2486,273.5156 2486.2656,273.375 2486.4375,273.1563 C2486.5469,273 2486.5781,272.8125 2486.5781,272.3906 L2486.5781,270.9688 C2486.5781,270.5313 2486.5625,270.4063 2486.4688,270.25 C2486.3125,269.9844 2486.0313,269.8438 2485.7344,269.8438 C2485.4375,269.8438 2485.2344,269.9375 2485.0156,270.25 L2484.8438,270.1719 Z " fill="#000000"/><text fill="#000000" font-family="sans-serif" font-size="14" lengthAdjust="spacing" textLength="140" x="2496.5" y="279.3467">MainViewController</text><line style="stroke:#181818;stroke-width:0.5;" x1="2468.5" x2="2638.5" y1="290.5" y2="290.5"/><polygon fill="#4177AF" points="2478.5,300.1484,2474.5,306.1484,2482.5,306.1484" style="stroke:#1963A0;stroke-width:1.0;"/><text fill="#000000" font-family="sans-serif" font-size="14" lengthAdjust="spacing" textLength="100" x="2487.5" y="307.4951">viewDidLoad()</text></g><!--class StateSingleton--><g id="elem_StateSingleton"><rect codeLine="47" fill="#F1F1F1" height="96.8906" id="StateSingleton" rx="2.5" ry="2.5" style="stroke:#181818;stroke-width:0.5;" width="188" x="2673.5" y="7"/><ellipse cx="2709.65" cy="23" fill="#8FBC8F" rx="11" ry="11" style="stroke:#181818;stroke-width:1.0;"/><path d="M2711.9938,18.6719 C2711.0563,18.2344 2710.4625,18.0938 2709.5875,18.0938 C2706.9625,18.0938 2704.9625,20.1719 2704.9625,22.8906 L2704.9625,24.0156 C2704.9625,26.5938 2707.0719,28.4844 2709.9625,28.4844 C2711.1813,28.4844 2712.3375,28.1875 2713.0875,27.6406 C2713.6656,27.2344 2713.9938,26.7813 2713.9938,26.3906 C2713.9938,25.9375 2713.6031,25.5469 2713.1344,25.5469 C2712.9156,25.5469 2712.7125,25.625 2712.525,25.8125 C2712.0719,26.2969 2712.0719,26.2969 2711.8844,26.3906 C2711.4625,26.6563 2710.775,26.7813 2710.0094,26.7813 C2707.9625,26.7813 2706.6656,25.6875 2706.6656,23.9844 L2706.6656,22.8906 C2706.6656,21.1094 2707.9156,19.7969 2709.65,19.7969 C2710.2281,19.7969 2710.8375,19.9531 2711.3063,20.2031 C2711.7906,20.4844 2711.9625,20.7031 2712.0563,21.1094 C2712.1188,21.5156 2712.15,21.6406 2712.2906,21.7656 C2712.4313,21.9063 2712.6656,22.0156 2712.8844,22.0156 C2713.15,22.0156 2713.4156,21.875 2713.5875,21.6563 C2713.6969,21.5 2713.7281,21.3125 2713.7281,20.8906 L2713.7281,19.4688 C2713.7281,19.0313 2713.7125,18.9063 2713.6188,18.75 C2713.4625,18.4844 2713.1813,18.3438 2712.8844,18.3438 C2712.5875,18.3438 2712.3844,18.4375 2712.1656,18.75 L2711.9938,18.6719 Z " fill="#000000"/><text fill="#000000" font-family="sans-serif" font-size="14" lengthAdjust="spacing" textLength="109" x="2728.35" y="27.8467">StateSingleton</text><line style="stroke:#181818;stroke-width:0.5;" x1="2674.5" x2="2860.5" y1="39" y2="39"/><polygon fill="none" points="2684.5,48.6484,2680.5,54.6484,2688.5,54.6484" style="stroke:#1963A0;stroke-width:1.0;"/><text fill="#000000" font-family="sans-serif" font-size="14" lengthAdjust="spacing" textLength="162" x="2693.5" y="55.9951">pedidoActual : Pedido!</text><polygon fill="none" points="2684.5,64.9453,2680.5,70.9453,2688.5,70.9453" style="stroke:#1963A0;stroke-width:1.0;"/><text fill="#000000" font-family="sans-serif" font-size="14" lengthAdjust="spacing" text-decoration="underline" textLength="48" x="2693.5" y="72.292">shared</text><line style="stroke:#181818;stroke-width:0.5;" x1="2674.5" x2="2860.5" y1="79.5938" y2="79.5938"/><rect fill="#F24D5C" height="6" style="stroke:#C82930;stroke-width:1.0;" width="6" x="2681.5" y="90.2422"/><text fill="#000000" font-family="sans-serif" font-size="14" lengthAdjust="spacing" textLength="34" x="2693.5" y="96.5889">init()</text></g><!--class PlatosViewController--><g id="elem_PlatosViewController"><rect codeLine="52" fill="#F1F1F1" height="210.9688" id="PlatosViewController" rx="2.5" ry="2.5" style="stroke:#181818;stroke-width:0.5;" width="326" x="598.5" y="469"/><ellipse cx="681.75" cy="485" fill="#8FBC8F" rx="11" ry="11" style="stroke:#181818;stroke-width:1.0;"/><path d="M684.0938,480.6719 C683.1563,480.2344 682.5625,480.0938 681.6875,480.0938 C679.0625,480.0938 677.0625,482.1719 677.0625,484.8906 L677.0625,486.0156 C677.0625,488.5938 679.1719,490.4844 682.0625,490.4844 C683.2813,490.4844 684.4375,490.1875 685.1875,489.6406 C685.7656,489.2344 686.0938,488.7813 686.0938,488.3906 C686.0938,487.9375 685.7031,487.5469 685.2344,487.5469 C685.0156,487.5469 684.8125,487.625 684.625,487.8125 C684.1719,488.2969 684.1719,488.2969 683.9844,488.3906 C683.5625,488.6563 682.875,488.7813 682.1094,488.7813 C680.0625,488.7813 678.7656,487.6875 678.7656,485.9844 L678.7656,484.8906 C678.7656,483.1094 680.0156,481.7969 681.75,481.7969 C682.3281,481.7969 682.9375,481.9531 683.4063,482.2031 C683.8906,482.4844 684.0625,482.7031 684.1563,483.1094 C684.2188,483.5156 684.25,483.6406 684.3906,483.7656 C684.5313,483.9063 684.7656,484.0156 684.9844,484.0156 C685.25,484.0156 685.5156,483.875 685.6875,483.6563 C685.7969,483.5 685.8281,483.3125 685.8281,482.8906 L685.8281,481.4688 C685.8281,481.0313 685.8125,480.9063 685.7188,480.75 C685.5625,480.4844 685.2813,480.3438 684.9844,480.3438 C684.6875,480.3438 684.4844,480.4375 684.2656,480.75 L684.0938,480.6719 Z " fill="#000000"/><text fill="#000000" font-family="sans-serif" font-size="14" lengthAdjust="spacing" textLength="151" x="702.25" y="489.8467">PlatosViewController</text><line style="stroke:#181818;stroke-width:0.5;" x1="599.5" x2="923.5" y1="501" y2="501"/><polygon fill="none" points="609.5,510.6484,605.5,516.6484,613.5,516.6484" style="stroke:#1963A0;stroke-width:1.0;"/><text fill="#000000" font-family="sans-serif" font-size="14" lengthAdjust="spacing" textLength="300" x="618.5" y="517.9951">frc : NSFetchedResultsController&lt;Plato&gt;!</text><polygon fill="none" points="609.5,526.9453,605.5,532.9453,613.5,532.9453" style="stroke:#1963A0;stroke-width:1.0;"/><text fill="#000000" font-family="sans-serif" font-size="14" lengthAdjust="spacing" textLength="142" x="618.5" y="534.292">tabla : UITableView!</text><polygon fill="none" points="609.5,543.2422,605.5,549.2422,613.5,549.2422" style="stroke:#1963A0;stroke-width:1.0;"/><text fill="#000000" font-family="sans-serif" font-size="14" lengthAdjust="spacing" textLength="273" x="618.5" y="550.5889">searchController : UISearchController!</text><line style="stroke:#181818;stroke-width:0.5;" x1="599.5" x2="923.5" y1="557.8906" y2="557.8906"/><polygon fill="#4177AF" points="609.5,567.5391,605.5,573.5391,613.5,573.5391" style="stroke:#1963A0;stroke-width:1.0;"/><text fill="#000000" font-family="sans-serif" font-size="14" lengthAdjust="spacing" textLength="188" x="618.5" y="574.8857">updateSearchResults(for:)</text><polygon fill="#4177AF" points="609.5,583.8359,605.5,589.8359,613.5,589.8359" style="stroke:#1963A0;stroke-width:1.0;"/><text fill="#000000" font-family="sans-serif" font-size="14" lengthAdjust="spacing" textLength="100" x="618.5" y="591.1826">viewDidLoad()</text><polygon fill="#4177AF" points="609.5,600.1328,605.5,606.1328,613.5,606.1328" style="stroke:#1963A0;stroke-width:1.0;"/><text fill="#000000" font-family="sans-serif" font-size="14" lengthAdjust="spacing" textLength="277" x="618.5" y="607.4795">tableView(_:numberOfRowsInSection:)</text><polygon fill="#4177AF" points="609.5,616.4297,605.5,622.4297,613.5,622.4297" style="stroke:#1963A0;stroke-width:1.0;"/><text fill="#000000" font-family="sans-serif" font-size="14" lengthAdjust="spacing" textLength="272" x="618.5" y="623.7764">tableView(_:titleForHeaderInSection:)</text><polygon fill="#4177AF" points="609.5,632.7266,605.5,638.7266,613.5,638.7266" style="stroke:#1963A0;stroke-width:1.0;"/><text fill="#000000" font-family="sans-serif" font-size="14" lengthAdjust="spacing" textLength="163" x="618.5" y="640.0732">numberOfSections(in:)</text><polygon fill="#4177AF" points="609.5,649.0234,605.5,655.0234,613.5,655.0234" style="stroke:#1963A0;stroke-width:1.0;"/><text fill="#000000" font-family="sans-serif" font-size="14" lengthAdjust="spacing" textLength="194" x="618.5" y="656.3701">tableView(_:cellForRowAt:)</text><polygon fill="#4177AF" points="609.5,665.3203,605.5,671.3203,613.5,671.3203" style="stroke:#1963A0;stroke-width:1.0;"/><text fill="#000000" font-family="sans-serif" font-size="14" lengthAdjust="spacing" textLength="183" x="618.5" y="672.667">platoAñadido(indexPath:)</text></g><!--class PlatoTableViewCell--><g id="elem_PlatoTableViewCell"><rect codeLine="64" fill="#F1F1F1" height="178.375" id="PlatoTableViewCell" rx="2.5" ry="2.5" style="stroke:#181818;stroke-width:0.5;" width="314" x="1690.5" y="197.5"/><ellipse cx="1774.25" cy="213.5" fill="#8FBC8F" rx="11" ry="11" style="stroke:#181818;stroke-width:1.0;"/><path d="M1776.5938,209.1719 C1775.6563,208.7344 1775.0625,208.5938 1774.1875,208.5938 C1771.5625,208.5938 1769.5625,210.6719 1769.5625,213.3906 L1769.5625,214.5156 C1769.5625,217.0938 1771.6719,218.9844 1774.5625,218.9844 C1775.7813,218.9844 1776.9375,218.6875 1777.6875,218.1406 C1778.2656,217.7344 1778.5938,217.2813 1778.5938,216.8906 C1778.5938,216.4375 1778.2031,216.0469 1777.7344,216.0469 C1777.5156,216.0469 1777.3125,216.125 1777.125,216.3125 C1776.6719,216.7969 1776.6719,216.7969 1776.4844,216.8906 C1776.0625,217.1563 1775.375,217.2813 1774.6094,217.2813 C1772.5625,217.2813 1771.2656,216.1875 1771.2656,214.4844 L1771.2656,213.3906 C1771.2656,211.6094 1772.5156,210.2969 1774.25,210.2969 C1774.8281,210.2969 1775.4375,210.4531 1775.9063,210.7031 C1776.3906,210.9844 1776.5625,211.2031 1776.6563,211.6094 C1776.7188,212.0156 1776.75,212.1406 1776.8906,212.2656 C1777.0313,212.4063 1777.2656,212.5156 1777.4844,212.5156 C1777.75,212.5156 1778.0156,212.375 1778.1875,212.1563 C1778.2969,212 1778.3281,211.8125 1778.3281,211.3906 L1778.3281,209.9688 C1778.3281,209.5313 1778.3125,209.4063 1778.2188,209.25 C1778.0625,208.9844 1777.7813,208.8438 1777.4844,208.8438 C1777.1875,208.8438 1776.9844,208.9375 1776.7656,209.25 L1776.5938,209.1719 Z " fill="#000000"/><text fill="#000000" font-family="sans-serif" font-size="14" lengthAdjust="spacing" textLength="138" x="1794.75" y="218.3467">PlatoTableViewCell</text><line style="stroke:#181818;stroke-width:0.5;" x1="1691.5" x2="2003.5" y1="229.5" y2="229.5"/><polygon fill="none" points="1701.5,239.1484,1697.5,245.1484,1705.5,245.1484" style="stroke:#1963A0;stroke-width:1.0;"/><text fill="#000000" font-family="sans-serif" font-size="14" lengthAdjust="spacing" textLength="166" x="1710.5" y="246.4951">nombreLabel : UILabel!</text><polygon fill="none" points="1701.5,255.4453,1697.5,261.4453,1705.5,261.4453" style="stroke:#1963A0;stroke-width:1.0;"/><text fill="#000000" font-family="sans-serif" font-size="14" lengthAdjust="spacing" textLength="155" x="1710.5" y="262.792">precioLabel : UILabel!</text><polygon fill="none" points="1701.5,271.7422,1697.5,277.7422,1705.5,277.7422" style="stroke:#1963A0;stroke-width:1.0;"/><text fill="#000000" font-family="sans-serif" font-size="14" lengthAdjust="spacing" textLength="192" x="1710.5" y="279.0889">descripcionLabel : UILabel!</text><polygon fill="none" points="1701.5,288.0391,1697.5,294.0391,1705.5,294.0391" style="stroke:#1963A0;stroke-width:1.0;"/><text fill="#000000" font-family="sans-serif" font-size="14" lengthAdjust="spacing" textLength="129" x="1710.5" y="295.3857">index : IndexPath!</text><polygon fill="none" points="1701.5,304.3359,1697.5,310.3359,1705.5,310.3359" style="stroke:#1963A0;stroke-width:1.0;"/><text fill="#000000" font-family="sans-serif" font-size="14" lengthAdjust="spacing" textLength="288" x="1710.5" y="311.6826">delegate : PlatoTableViewCellDelegate?</text><line style="stroke:#181818;stroke-width:0.5;" x1="1691.5" x2="2003.5" y1="318.9844" y2="318.9844"/><polygon fill="#4177AF" points="1701.5,328.6328,1697.5,334.6328,1705.5,334.6328" style="stroke:#1963A0;stroke-width:1.0;"/><text fill="#000000" font-family="sans-serif" font-size="14" lengthAdjust="spacing" textLength="166" x="1710.5" y="335.9795">botonAñadirPulsado(_:)</text><polygon fill="#4177AF" points="1701.5,344.9297,1697.5,350.9297,1705.5,350.9297" style="stroke:#1963A0;stroke-width:1.0;"/><text fill="#000000" font-family="sans-serif" font-size="14" lengthAdjust="spacing" textLength="116" x="1710.5" y="352.2764">awakeFromNib()</text><polygon fill="#4177AF" points="1701.5,361.2266,1697.5,367.2266,1705.5,367.2266" style="stroke:#1963A0;stroke-width:1.0;"/><text fill="#000000" font-family="sans-serif" font-size="14" lengthAdjust="spacing" textLength="182" x="1710.5" y="368.5732">setSelected(_:animated:)</text></g><!--class PedidosViewController--><g id="elem_PedidosViewController"><rect codeLine="74" fill="#F1F1F1" height="56.2969" id="PedidosViewController" rx="2.5" ry="2.5" style="stroke:#181818;stroke-width:0.5;" width="195" x="351" y="546.5"/><ellipse cx="366" cy="562.5" fill="#8FBC8F" rx="11" ry="11" style="stroke:#181818;stroke-width:1.0;"/><path d="M368.3438,558.1719 C367.4063,557.7344 366.8125,557.5938 365.9375,557.5938 C363.3125,557.5938 361.3125,559.6719 361.3125,562.3906 L361.3125,563.5156 C361.3125,566.0938 363.4219,567.9844 366.3125,567.9844 C367.5313,567.9844 368.6875,567.6875 369.4375,567.1406 C370.0156,566.7344 370.3438,566.2813 370.3438,565.8906 C370.3438,565.4375 369.9531,565.0469 369.4844,565.0469 C369.2656,565.0469 369.0625,565.125 368.875,565.3125 C368.4219,565.7969 368.4219,565.7969 368.2344,565.8906 C367.8125,566.1563 367.125,566.2813 366.3594,566.2813 C364.3125,566.2813 363.0156,565.1875 363.0156,563.4844 L363.0156,562.3906 C363.0156,560.6094 364.2656,559.2969 366,559.2969 C366.5781,559.2969 367.1875,559.4531 367.6563,559.7031 C368.1406,559.9844 368.3125,560.2031 368.4063,560.6094 C368.4688,561.0156 368.5,561.1406 368.6406,561.2656 C368.7813,561.4063 369.0156,561.5156 369.2344,561.5156 C369.5,561.5156 369.7656,561.375 369.9375,561.1563 C370.0469,561 370.0781,560.8125 370.0781,560.3906 L370.0781,558.9688 C370.0781,558.5313 370.0625,558.4063 369.9688,558.25 C369.8125,557.9844 369.5313,557.8438 369.2344,557.8438 C368.9375,557.8438 368.7344,557.9375 368.5156,558.25 L368.3438,558.1719 Z " fill="#000000"/><text fill="#000000" font-family="sans-serif" font-size="14" lengthAdjust="spacing" textLength="163" x="380" y="567.3467">PedidosViewController</text><line style="stroke:#181818;stroke-width:0.5;" x1="352" x2="545" y1="578.5" y2="578.5"/><polygon fill="#4177AF" points="362,588.1484,358,594.1484,366,594.1484" style="stroke:#1963A0;stroke-width:1.0;"/><text fill="#000000" font-family="sans-serif" font-size="14" lengthAdjust="spacing" textLength="100" x="371" y="595.4951">viewDidLoad()</text></g><!--class AppDelegate--><g id="elem_AppDelegate"><rect codeLine="77" fill="#F1F1F1" height="210.9688" id="AppDelegate" rx="2.5" ry="2.5" style="stroke:#181818;stroke-width:0.5;" width="360" x="2875.5" y="181"/><ellipse cx="3003.25" cy="197" fill="#8FBC8F" rx="11" ry="11" style="stroke:#181818;stroke-width:1.0;"/><path d="M3005.5938,192.6719 C3004.6563,192.2344 3004.0625,192.0938 3003.1875,192.0938 C3000.5625,192.0938 2998.5625,194.1719 2998.5625,196.8906 L2998.5625,198.0156 C2998.5625,200.5938 3000.6719,202.4844 3003.5625,202.4844 C3004.7813,202.4844 3005.9375,202.1875 3006.6875,201.6406 C3007.2656,201.2344 3007.5938,200.7813 3007.5938,200.3906 C3007.5938,199.9375 3007.2031,199.5469 3006.7344,199.5469 C3006.5156,199.5469 3006.3125,199.625 3006.125,199.8125 C3005.6719,200.2969 3005.6719,200.2969 3005.4844,200.3906 C3005.0625,200.6563 3004.375,200.7813 3003.6094,200.7813 C3001.5625,200.7813 3000.2656,199.6875 3000.2656,197.9844 L3000.2656,196.8906 C3000.2656,195.1094 3001.5156,193.7969 3003.25,193.7969 C3003.8281,193.7969 3004.4375,193.9531 3004.9063,194.2031 C3005.3906,194.4844 3005.5625,194.7031 3005.6563,195.1094 C3005.7188,195.5156 3005.75,195.6406 3005.8906,195.7656 C3006.0313,195.9063 3006.2656,196.0156 3006.4844,196.0156 C3006.75,196.0156 3007.0156,195.875 3007.1875,195.6563 C3007.2969,195.5 3007.3281,195.3125 3007.3281,194.8906 L3007.3281,193.4688 C3007.3281,193.0313 3007.3125,192.9063 3007.2188,192.75 C3007.0625,192.4844 3006.7813,192.3438 3006.4844,192.3438 C3006.1875,192.3438 3005.9844,192.4375 3005.7656,192.75 L3005.5938,192.6719 Z " fill="#000000"/><text fill="#000000" font-family="sans-serif" font-size="14" lengthAdjust="spacing" textLength="96" x="3023.75" y="201.8467">AppDelegate</text><line style="stroke:#181818;stroke-width:0.5;" x1="2876.5" x2="3234.5" y1="213" y2="213"/><polygon fill="none" points="2886.5,222.6484,2882.5,228.6484,2890.5,228.6484" style="stroke:#1963A0;stroke-width:1.0;"/><text fill="#000000" font-family="sans-serif" font-size="14" lengthAdjust="spacing" textLength="142" x="2895.5" y="229.9951">window : UIWindow?</text><polygon fill="none" points="2886.5,238.9453,2882.5,244.9453,2890.5,244.9453" style="stroke:#1963A0;stroke-width:1.0;"/><text fill="#000000" font-family="sans-serif" font-size="14" lengthAdjust="spacing" textLength="323" x="2895.5" y="246.292">persistentContainer : NSPersistentContainer</text><line style="stroke:#181818;stroke-width:0.5;" x1="2876.5" x2="3234.5" y1="253.5938" y2="253.5938"/><polygon fill="#4177AF" points="2886.5,263.2422,2882.5,269.2422,2890.5,269.2422" style="stroke:#1963A0;stroke-width:1.0;"/><text fill="#000000" font-family="sans-serif" font-size="14" lengthAdjust="spacing" textLength="334" x="2895.5" y="270.5889">application(_:didFinishLaunchingWithOptions:)</text><polygon fill="#4177AF" points="2886.5,279.5391,2882.5,285.5391,2890.5,285.5391" style="stroke:#1963A0;stroke-width:1.0;"/><text fill="#000000" font-family="sans-serif" font-size="14" lengthAdjust="spacing" textLength="104" x="2895.5" y="286.8857">importPlatos()</text><polygon fill="#4177AF" points="2886.5,295.8359,2882.5,301.8359,2890.5,301.8359" style="stroke:#1963A0;stroke-width:1.0;"/><text fill="#000000" font-family="sans-serif" font-size="14" lengthAdjust="spacing" textLength="223" x="2895.5" y="303.1826">applicationWillResignActive(_:)</text><polygon fill="#4177AF" points="2886.5,312.1328,2882.5,318.1328,2890.5,318.1328" style="stroke:#1963A0;stroke-width:1.0;"/><text fill="#000000" font-family="sans-serif" font-size="14" lengthAdjust="spacing" textLength="252" x="2895.5" y="319.4795">applicationDidEnterBackground(_:)</text><polygon fill="#4177AF" points="2886.5,328.4297,2882.5,334.4297,2890.5,334.4297" style="stroke:#1963A0;stroke-width:1.0;"/><text fill="#000000" font-family="sans-serif" font-size="14" lengthAdjust="spacing" textLength="251" x="2895.5" y="335.7764">applicationWillEnterForeground(_:)</text><polygon fill="#4177AF" points="2886.5,344.7266,2882.5,350.7266,2890.5,350.7266" style="stroke:#1963A0;stroke-width:1.0;"/><text fill="#000000" font-family="sans-serif" font-size="14" lengthAdjust="spacing" textLength="232" x="2895.5" y="352.0732">applicationDidBecomeActive(_:)</text><polygon fill="#4177AF" points="2886.5,361.0234,2882.5,367.0234,2890.5,367.0234" style="stroke:#1963A0;stroke-width:1.0;"/><text fill="#000000" font-family="sans-serif" font-size="14" lengthAdjust="spacing" textLength="204" x="2895.5" y="368.3701">applicationWillTerminate(_:)</text><polygon fill="#4177AF" points="2886.5,377.3203,2882.5,383.3203,2890.5,383.3203" style="stroke:#1963A0;stroke-width:1.0;"/><text fill="#000000" font-family="sans-serif" font-size="14" lengthAdjust="spacing" textLength="101" x="2895.5" y="384.667">saveContext()</text></g><!--class AnyObject--><g id="elem_AnyObject"><rect fill="#F1F1F1" height="32" id="AnyObject" rx="2.5" ry="2.5" style="stroke:#181818;stroke-width:0.5;" width="108" x="312.5" y="39.5"/><ellipse cx="327.5" cy="55.5" fill="#ADD1B2" rx="11" ry="11" style="stroke:#181818;stroke-width:1.0;"/><path d="M329.8438,51.1719 C328.9063,50.7344 328.3125,50.5938 327.4375,50.5938 C324.8125,50.5938 322.8125,52.6719 322.8125,55.3906 L322.8125,56.5156 C322.8125,59.0938 324.9219,60.9844 327.8125,60.9844 C329.0313,60.9844 330.1875,60.6875 330.9375,60.1406 C331.5156,59.7344 331.8438,59.2813 331.8438,58.8906 C331.8438,58.4375 331.4531,58.0469 330.9844,58.0469 C330.7656,58.0469 330.5625,58.125 330.375,58.3125 C329.9219,58.7969 329.9219,58.7969 329.7344,58.8906 C329.3125,59.1563 328.625,59.2813 327.8594,59.2813 C325.8125,59.2813 324.5156,58.1875 324.5156,56.4844 L324.5156,55.3906 C324.5156,53.6094 325.7656,52.2969 327.5,52.2969 C328.0781,52.2969 328.6875,52.4531 329.1563,52.7031 C329.6406,52.9844 329.8125,53.2031 329.9063,53.6094 C329.9688,54.0156 330,54.1406 330.1406,54.2656 C330.2813,54.4063 330.5156,54.5156 330.7344,54.5156 C331,54.5156 331.2656,54.375 331.4375,54.1563 C331.5469,54 331.5781,53.8125 331.5781,53.3906 L331.5781,51.9688 C331.5781,51.5313 331.5625,51.4063 331.4688,51.25 C331.3125,50.9844 331.0313,50.8438 330.7344,50.8438 C330.4375,50.8438 330.2344,50.9375 330.0156,51.25 L329.8438,51.1719 Z " fill="#000000"/><text fill="#000000" font-family="sans-serif" font-size="14" lengthAdjust="spacing" textLength="76" x="341.5" y="60.3467">AnyObject</text></g><!--class UITableViewCell--><g id="elem_UITableViewCell"><rect fill="#F1F1F1" height="32" id="UITableViewCell" rx="2.5" ry="2.5" style="stroke:#181818;stroke-width:0.5;" width="146" x="1587.5" y="39.5"/><ellipse cx="1602.5" cy="55.5" fill="#ADD1B2" rx="11" ry="11" style="stroke:#181818;stroke-width:1.0;"/><path d="M1604.8438,51.1719 C1603.9063,50.7344 1603.3125,50.5938 1602.4375,50.5938 C1599.8125,50.5938 1597.8125,52.6719 1597.8125,55.3906 L1597.8125,56.5156 C1597.8125,59.0938 1599.9219,60.9844 1602.8125,60.9844 C1604.0313,60.9844 1605.1875,60.6875 1605.9375,60.1406 C1606.5156,59.7344 1606.8438,59.2813 1606.8438,58.8906 C1606.8438,58.4375 1606.4531,58.0469 1605.9844,58.0469 C1605.7656,58.0469 1605.5625,58.125 1605.375,58.3125 C1604.9219,58.7969 1604.9219,58.7969 1604.7344,58.8906 C1604.3125,59.1563 1603.625,59.2813 1602.8594,59.2813 C1600.8125,59.2813 1599.5156,58.1875 1599.5156,56.4844 L1599.5156,55.3906 C1599.5156,53.6094 1600.7656,52.2969 1602.5,52.2969 C1603.0781,52.2969 1603.6875,52.4531 1604.1563,52.7031 C1604.6406,52.9844 1604.8125,53.2031 1604.9063,53.6094 C1604.9688,54.0156 1605,54.1406 1605.1406,54.2656 C1605.2813,54.4063 1605.5156,54.5156 1605.7344,54.5156 C1606,54.5156 1606.2656,54.375 1606.4375,54.1563 C1606.5469,54 1606.5781,53.8125 1606.5781,53.3906 L1606.5781,51.9688 C1606.5781,51.5313 1606.5625,51.4063 1606.4688,51.25 C1606.3125,50.9844 1606.0313,50.8438 1605.7344,50.8438 C1605.4375,50.8438 1605.2344,50.9375 1605.0156,51.25 L1604.8438,51.1719 Z " fill="#000000"/><text fill="#000000" font-family="sans-serif" font-size="14" lengthAdjust="spacing" textLength="114" x="1616.5" y="60.3467">UITableViewCell</text></g><!--class UIViewController--><g id="elem_UIViewController"><rect fill="#F1F1F1" height="32" id="UIViewController" rx="2.5" ry="2.5" style="stroke:#181818;stroke-width:0.5;" width="152" x="349.5" y="270.5"/><ellipse cx="364.5" cy="286.5" fill="#ADD1B2" rx="11" ry="11" style="stroke:#181818;stroke-width:1.0;"/><path d="M366.8438,282.1719 C365.9063,281.7344 365.3125,281.5938 364.4375,281.5938 C361.8125,281.5938 359.8125,283.6719 359.8125,286.3906 L359.8125,287.5156 C359.8125,290.0938 361.9219,291.9844 364.8125,291.9844 C366.0313,291.9844 367.1875,291.6875 367.9375,291.1406 C368.5156,290.7344 368.8438,290.2813 368.8438,289.8906 C368.8438,289.4375 368.4531,289.0469 367.9844,289.0469 C367.7656,289.0469 367.5625,289.125 367.375,289.3125 C366.9219,289.7969 366.9219,289.7969 366.7344,289.8906 C366.3125,290.1563 365.625,290.2813 364.8594,290.2813 C362.8125,290.2813 361.5156,289.1875 361.5156,287.4844 L361.5156,286.3906 C361.5156,284.6094 362.7656,283.2969 364.5,283.2969 C365.0781,283.2969 365.6875,283.4531 366.1563,283.7031 C366.6406,283.9844 366.8125,284.2031 366.9063,284.6094 C366.9688,285.0156 367,285.1406 367.1406,285.2656 C367.2813,285.4063 367.5156,285.5156 367.7344,285.5156 C368,285.5156 368.2656,285.375 368.4375,285.1563 C368.5469,285 368.5781,284.8125 368.5781,284.3906 L368.5781,282.9688 C368.5781,282.5313 368.5625,282.4063 368.4688,282.25 C368.3125,281.9844 368.0313,281.8438 367.7344,281.8438 C367.4375,281.8438 367.2344,281.9375 367.0156,282.25 L366.8438,282.1719 Z " fill="#000000"/><text fill="#000000" font-family="sans-serif" font-size="14" lengthAdjust="spacing" textLength="120" x="378.5" y="291.3467">UIViewController</text></g><!--class UITableViewDataSource--><g id="elem_UITableViewDataSource"><rect fill="#F1F1F1" height="32" id="UITableViewDataSource" rx="2.5" ry="2.5" style="stroke:#181818;stroke-width:0.5;" width="202" x="536.5" y="270.5"/><ellipse cx="551.5" cy="286.5" fill="#ADD1B2" rx="11" ry="11" style="stroke:#181818;stroke-width:1.0;"/><path d="M553.8438,282.1719 C552.9063,281.7344 552.3125,281.5938 551.4375,281.5938 C548.8125,281.5938 546.8125,283.6719 546.8125,286.3906 L546.8125,287.5156 C546.8125,290.0938 548.9219,291.9844 551.8125,291.9844 C553.0313,291.9844 554.1875,291.6875 554.9375,291.1406 C555.5156,290.7344 555.8438,290.2813 555.8438,289.8906 C555.8438,289.4375 555.4531,289.0469 554.9844,289.0469 C554.7656,289.0469 554.5625,289.125 554.375,289.3125 C553.9219,289.7969 553.9219,289.7969 553.7344,289.8906 C553.3125,290.1563 552.625,290.2813 551.8594,290.2813 C549.8125,290.2813 548.5156,289.1875 548.5156,287.4844 L548.5156,286.3906 C548.5156,284.6094 549.7656,283.2969 551.5,283.2969 C552.0781,283.2969 552.6875,283.4531 553.1563,283.7031 C553.6406,283.9844 553.8125,284.2031 553.9063,284.6094 C553.9688,285.0156 554,285.1406 554.1406,285.2656 C554.2813,285.4063 554.5156,285.5156 554.7344,285.5156 C555,285.5156 555.2656,285.375 555.4375,285.1563 C555.5469,285 555.5781,284.8125 555.5781,284.3906 L555.5781,282.9688 C555.5781,282.5313 555.5625,282.4063 555.4688,282.25 C555.3125,281.9844 555.0313,281.8438 554.7344,281.8438 C554.4375,281.8438 554.2344,281.9375 554.0156,282.25 L553.8438,282.1719 Z " fill="#000000"/><text fill="#000000" font-family="sans-serif" font-size="14" lengthAdjust="spacing" textLength="170" x="565.5" y="291.3467">UITableViewDataSource</text></g><!--class Codable--><g id="elem_Codable"><rect fill="#F1F1F1" height="32" id="Codable" rx="2.5" ry="2.5" style="stroke:#181818;stroke-width:0.5;" width="91" x="2077" y="39.5"/><ellipse cx="2092" cy="55.5" fill="#ADD1B2" rx="11" ry="11" style="stroke:#181818;stroke-width:1.0;"/><path d="M2094.3438,51.1719 C2093.4063,50.7344 2092.8125,50.5938 2091.9375,50.5938 C2089.3125,50.5938 2087.3125,52.6719 2087.3125,55.3906 L2087.3125,56.5156 C2087.3125,59.0938 2089.4219,60.9844 2092.3125,60.9844 C2093.5313,60.9844 2094.6875,60.6875 2095.4375,60.1406 C2096.0156,59.7344 2096.3438,59.2813 2096.3438,58.8906 C2096.3438,58.4375 2095.9531,58.0469 2095.4844,58.0469 C2095.2656,58.0469 2095.0625,58.125 2094.875,58.3125 C2094.4219,58.7969 2094.4219,58.7969 2094.2344,58.8906 C2093.8125,59.1563 2093.125,59.2813 2092.3594,59.2813 C2090.3125,59.2813 2089.0156,58.1875 2089.0156,56.4844 L2089.0156,55.3906 C2089.0156,53.6094 2090.2656,52.2969 2092,52.2969 C2092.5781,52.2969 2093.1875,52.4531 2093.6563,52.7031 C2094.1406,52.9844 2094.3125,53.2031 2094.4063,53.6094 C2094.4688,54.0156 2094.5,54.1406 2094.6406,54.2656 C2094.7813,54.4063 2095.0156,54.5156 2095.2344,54.5156 C2095.5,54.5156 2095.7656,54.375 2095.9375,54.1563 C2096.0469,54 2096.0781,53.8125 2096.0781,53.3906 L2096.0781,51.9688 C2096.0781,51.5313 2096.0625,51.4063 2095.9688,51.25 C2095.8125,50.9844 2095.5313,50.8438 2095.2344,50.8438 C2094.9375,50.8438 2094.7344,50.9375 2094.5156,51.25 L2094.3438,51.1719 Z " fill="#000000"/><text fill="#000000" font-family="sans-serif" font-size="14" lengthAdjust="spacing" textLength="59" x="2106" y="60.3467">Codable</text></g><!--class UITabBarController--><g id="elem_UITabBarController"><rect fill="#F1F1F1" height="32" id="UITabBarController" rx="2.5" ry="2.5" style="stroke:#181818;stroke-width:0.5;" width="169" x="2469" y="39.5"/><ellipse cx="2484" cy="55.5" fill="#ADD1B2" rx="11" ry="11" style="stroke:#181818;stroke-width:1.0;"/><path d="M2486.3438,51.1719 C2485.4063,50.7344 2484.8125,50.5938 2483.9375,50.5938 C2481.3125,50.5938 2479.3125,52.6719 2479.3125,55.3906 L2479.3125,56.5156 C2479.3125,59.0938 2481.4219,60.9844 2484.3125,60.9844 C2485.5313,60.9844 2486.6875,60.6875 2487.4375,60.1406 C2488.0156,59.7344 2488.3438,59.2813 2488.3438,58.8906 C2488.3438,58.4375 2487.9531,58.0469 2487.4844,58.0469 C2487.2656,58.0469 2487.0625,58.125 2486.875,58.3125 C2486.4219,58.7969 2486.4219,58.7969 2486.2344,58.8906 C2485.8125,59.1563 2485.125,59.2813 2484.3594,59.2813 C2482.3125,59.2813 2481.0156,58.1875 2481.0156,56.4844 L2481.0156,55.3906 C2481.0156,53.6094 2482.2656,52.2969 2484,52.2969 C2484.5781,52.2969 2485.1875,52.4531 2485.6563,52.7031 C2486.1406,52.9844 2486.3125,53.2031 2486.4063,53.6094 C2486.4688,54.0156 2486.5,54.1406 2486.6406,54.2656 C2486.7813,54.4063 2487.0156,54.5156 2487.2344,54.5156 C2487.5,54.5156 2487.7656,54.375 2487.9375,54.1563 C2488.0469,54 2488.0781,53.8125 2488.0781,53.3906 L2488.0781,51.9688 C2488.0781,51.5313 2488.0625,51.4063 2487.9688,51.25 C2487.8125,50.9844 2487.5313,50.8438 2487.2344,50.8438 C2486.9375,50.8438 2486.7344,50.9375 2486.5156,51.25 L2486.3438,51.1719 Z " fill="#000000"/><text fill="#000000" font-family="sans-serif" font-size="14" lengthAdjust="spacing" textLength="137" x="2498" y="60.3467">UITabBarController</text></g><!--class UISearchResultsUpdating--><g id="elem_UISearchResultsUpdating"><rect fill="#F1F1F1" height="32" id="UISearchResultsUpdating" rx="2.5" ry="2.5" style="stroke:#181818;stroke-width:0.5;" width="211" x="1045" y="270.5"/><ellipse cx="1060" cy="286.5" fill="#ADD1B2" rx="11" ry="11" style="stroke:#181818;stroke-width:1.0;"/><path d="M1062.3438,282.1719 C1061.4063,281.7344 1060.8125,281.5938 1059.9375,281.5938 C1057.3125,281.5938 1055.3125,283.6719 1055.3125,286.3906 L1055.3125,287.5156 C1055.3125,290.0938 1057.4219,291.9844 1060.3125,291.9844 C1061.5313,291.9844 1062.6875,291.6875 1063.4375,291.1406 C1064.0156,290.7344 1064.3438,290.2813 1064.3438,289.8906 C1064.3438,289.4375 1063.9531,289.0469 1063.4844,289.0469 C1063.2656,289.0469 1063.0625,289.125 1062.875,289.3125 C1062.4219,289.7969 1062.4219,289.7969 1062.2344,289.8906 C1061.8125,290.1563 1061.125,290.2813 1060.3594,290.2813 C1058.3125,290.2813 1057.0156,289.1875 1057.0156,287.4844 L1057.0156,286.3906 C1057.0156,284.6094 1058.2656,283.2969 1060,283.2969 C1060.5781,283.2969 1061.1875,283.4531 1061.6563,283.7031 C1062.1406,283.9844 1062.3125,284.2031 1062.4063,284.6094 C1062.4688,285.0156 1062.5,285.1406 1062.6406,285.2656 C1062.7813,285.4063 1063.0156,285.5156 1063.2344,285.5156 C1063.5,285.5156 1063.7656,285.375 1063.9375,285.1563 C1064.0469,285 1064.0781,284.8125 1064.0781,284.3906 L1064.0781,282.9688 C1064.0781,282.5313 1064.0625,282.4063 1063.9688,282.25 C1063.8125,281.9844 1063.5313,281.8438 1063.2344,281.8438 C1062.9375,281.8438 1062.7344,281.9375 1062.5156,282.25 L1062.3438,282.1719 Z " fill="#000000"/><text fill="#000000" font-family="sans-serif" font-size="14" lengthAdjust="spacing" textLength="179" x="1074" y="291.3467">UISearchResultsUpdating</text></g><!--class UIResponder--><g id="elem_UIResponder"><rect fill="#F1F1F1" height="32" id="UIResponder" rx="2.5" ry="2.5" style="stroke:#181818;stroke-width:0.5;" width="123" x="2897" y="39.5"/><ellipse cx="2912" cy="55.5" fill="#ADD1B2" rx="11" ry="11" style="stroke:#181818;stroke-width:1.0;"/><path d="M2914.3438,51.1719 C2913.4063,50.7344 2912.8125,50.5938 2911.9375,50.5938 C2909.3125,50.5938 2907.3125,52.6719 2907.3125,55.3906 L2907.3125,56.5156 C2907.3125,59.0938 2909.4219,60.9844 2912.3125,60.9844 C2913.5313,60.9844 2914.6875,60.6875 2915.4375,60.1406 C2916.0156,59.7344 2916.3438,59.2813 2916.3438,58.8906 C2916.3438,58.4375 2915.9531,58.0469 2915.4844,58.0469 C2915.2656,58.0469 2915.0625,58.125 2914.875,58.3125 C2914.4219,58.7969 2914.4219,58.7969 2914.2344,58.8906 C2913.8125,59.1563 2913.125,59.2813 2912.3594,59.2813 C2910.3125,59.2813 2909.0156,58.1875 2909.0156,56.4844 L2909.0156,55.3906 C2909.0156,53.6094 2910.2656,52.2969 2912,52.2969 C2912.5781,52.2969 2913.1875,52.4531 2913.6563,52.7031 C2914.1406,52.9844 2914.3125,53.2031 2914.4063,53.6094 C2914.4688,54.0156 2914.5,54.1406 2914.6406,54.2656 C2914.7813,54.4063 2915.0156,54.5156 2915.2344,54.5156 C2915.5,54.5156 2915.7656,54.375 2915.9375,54.1563 C2916.0469,54 2916.0781,53.8125 2916.0781,53.3906 L2916.0781,51.9688 C2916.0781,51.5313 2916.0625,51.4063 2915.9688,51.25 C2915.8125,50.9844 2915.5313,50.8438 2915.2344,50.8438 C2914.9375,50.8438 2914.7344,50.9375 2914.5156,51.25 L2914.3438,51.1719 Z " fill="#000000"/><text fill="#000000" font-family="sans-serif" font-size="14" lengthAdjust="spacing" textLength="91" x="2926" y="60.3467">UIResponder</text></g><!--class UIApplicationDelegate--><g id="elem_UIApplicationDelegate"><rect fill="#F1F1F1" height="32" id="UIApplicationDelegate" rx="2.5" ry="2.5" style="stroke:#181818;stroke-width:0.5;" width="194" x="3055.5" y="39.5"/><ellipse cx="3070.5" cy="55.5" fill="#ADD1B2" rx="11" ry="11" style="stroke:#181818;stroke-width:1.0;"/><path d="M3072.8438,51.1719 C3071.9063,50.7344 3071.3125,50.5938 3070.4375,50.5938 C3067.8125,50.5938 3065.8125,52.6719 3065.8125,55.3906 L3065.8125,56.5156 C3065.8125,59.0938 3067.9219,60.9844 3070.8125,60.9844 C3072.0313,60.9844 3073.1875,60.6875 3073.9375,60.1406 C3074.5156,59.7344 3074.8438,59.2813 3074.8438,58.8906 C3074.8438,58.4375 3074.4531,58.0469 3073.9844,58.0469 C3073.7656,58.0469 3073.5625,58.125 3073.375,58.3125 C3072.9219,58.7969 3072.9219,58.7969 3072.7344,58.8906 C3072.3125,59.1563 3071.625,59.2813 3070.8594,59.2813 C3068.8125,59.2813 3067.5156,58.1875 3067.5156,56.4844 L3067.5156,55.3906 C3067.5156,53.6094 3068.7656,52.2969 3070.5,52.2969 C3071.0781,52.2969 3071.6875,52.4531 3072.1563,52.7031 C3072.6406,52.9844 3072.8125,53.2031 3072.9063,53.6094 C3072.9688,54.0156 3073,54.1406 3073.1406,54.2656 C3073.2813,54.4063 3073.5156,54.5156 3073.7344,54.5156 C3074,54.5156 3074.2656,54.375 3074.4375,54.1563 C3074.5469,54 3074.5781,53.8125 3074.5781,53.3906 L3074.5781,51.9688 C3074.5781,51.5313 3074.5625,51.4063 3074.4688,51.25 C3074.3125,50.9844 3074.0313,50.8438 3073.7344,50.8438 C3073.4375,50.8438 3073.2344,50.9375 3073.0156,51.25 L3072.8438,51.1719 Z " fill="#000000"/><text fill="#000000" font-family="sans-serif" font-size="14" lengthAdjust="spacing" textLength="162" x="3084.5" y="60.3467">UIApplicationDelegate</text></g><!--reverse link AnyObject to LineaPedidoTableViewCellDelegate--><g id="link_AnyObject_LineaPedidoTableViewCellDelegate"><path codeLine="89" d="M339.453,86.713 C300.643,130.068 229.483,209.558 189.924,253.749 " fill="none" id="AnyObject-backto-LineaPedidoTableViewCellDelegate" style="stroke:#181818;stroke-width:1.0;stroke-dasharray:7.0,7.0;"/><polygon fill="none" points="334.494,81.758,353.049,71.525,344.925,91.096,334.494,81.758" style="stroke:#181818;stroke-width:1.0;"/><text fill="#000000" font-family="sans-serif" font-size="13" lengthAdjust="spacing" textLength="47" x="295.5" y="147.0669">inherits</text></g><!--reverse link AnyObject to PlatoTableViewCellDelegate--><g id="link_AnyObject_PlatoTableViewCellDelegate"><path codeLine="90" d="M440.296,72.066 C520.837,90.858 652.099,126.845 755.5,181 C793.22,200.755 831.235,231.047 857.446,253.94 " fill="none" id="AnyObject-backto-PlatoTableViewCellDelegate" style="stroke:#181818;stroke-width:1.0;stroke-dasharray:7.0,7.0;"/><polygon fill="none" points="438.659,78.873,420.714,67.604,441.77,65.223,438.659,78.873" style="stroke:#181818;stroke-width:1.0;"/><text fill="#000000" font-family="sans-serif" font-size="13" lengthAdjust="spacing" textLength="47" x="686.5" y="147.0669">inherits</text></g><!--reverse link UITableViewCell to LineaPedidoTableViewCell--><g id="link_UITableViewCell_LineaPedidoTableViewCell"><path codeLine="91" d="M1635.32,87.334 C1612.32,115.505 1577.16,158.555 1545.49,197.341 " fill="none" id="UITableViewCell-backto-LineaPedidoTableViewCell" style="stroke:#181818;stroke-width:1.0;"/><polygon fill="none" points="1630.16,82.589,1648.23,71.525,1641,91.444,1630.16,82.589" style="stroke:#181818;stroke-width:1.0;"/><text fill="#000000" font-family="sans-serif" font-size="13" lengthAdjust="spacing" textLength="47" x="1596.5" y="147.0669">inherits</text></g><!--reverse link UIViewController to PedidoActualViewController--><g id="link_UIViewController_PedidoActualViewController"><path codeLine="92" d="M398.499,317.745 C379.772,338.666 354.213,367.109 331.5,392 C308.781,416.898 284.198,443.593 261.031,468.641 " fill="none" id="UIViewController-backto-PedidoActualViewController" style="stroke:#181818;stroke-width:1.0;"/><polygon fill="none" points="393.32,313.036,411.868,302.791,403.757,322.367,393.32,313.036" style="stroke:#181818;stroke-width:1.0;"/><text fill="#000000" font-family="sans-serif" font-size="13" lengthAdjust="spacing" textLength="47" x="301.5" y="435.0669">inherits</text></g><!--reverse link UITableViewDataSource to PedidoActualViewController--><g id="link_UITableViewDataSource_PedidoActualViewController"><path codeLine="93" d="M637.474,323.01 C635.378,358.133 626.278,410.625 592.5,439 C548.136,476.268 388.253,450.047 333.5,469 C327.771,470.983 322.03,473.183 316.307,475.562 " fill="none" id="UITableViewDataSource-backto-PedidoActualViewController" style="stroke:#181818;stroke-width:1.0;"/><polygon fill="none" points="630.48,322.665,638.029,302.865,644.475,323.05,630.48,322.665" style="stroke:#181818;stroke-width:1.0;"/><text fill="#000000" font-family="sans-serif" font-size="13" lengthAdjust="spacing" textLength="47" x="608.5" y="435.0669">inherits</text></g><!--reverse link LineaPedidoTableViewCellDelegate to PedidoActualViewController--><g id="link_LineaPedidoTableViewCellDelegate_PedidoActualViewController"><path codeLine="94" d="M161.862,339.27 C162.114,375.345 162.46,424.72 162.768,468.839 " fill="none" id="LineaPedidoTableViewCellDelegate-backto-PedidoActualViewController" style="stroke:#181818;stroke-width:1.0;stroke-dasharray:7.0,7.0;"/><polygon fill="none" points="154.862,339.248,161.722,319.2,168.861,339.15,154.862,339.248" style="stroke:#181818;stroke-width:1.0;"/><text fill="#000000" font-family="sans-serif" font-size="13" lengthAdjust="spacing" textLength="73" x="163.5" y="435.0669">confirms to</text></g><!--reverse link Codable to DatosPlato--><g id="link_Codable_DatosPlato"><path codeLine="95" d="M2122.5,91.526 C2122.5,128.297 2122.5,186.646 2122.5,229.755 " fill="none" id="Codable-backto-DatosPlato" style="stroke:#181818;stroke-width:1.0;"/><polygon fill="none" points="2115.5,91.525,2122.5,71.525,2129.5,91.525,2115.5,91.525" style="stroke:#181818;stroke-width:1.0;"/><text fill="#000000" font-family="sans-serif" font-size="13" lengthAdjust="spacing" textLength="47" x="2123.5" y="147.0669">inherits</text></g><!--reverse link UITabBarController to MainViewController--><g id="link_UITabBarController_MainViewController"><path codeLine="96" d="M2553.5,91.572 C2553.5,137.475 2553.5,216.953 2553.5,258.473 " fill="none" id="UITabBarController-backto-MainViewController" style="stroke:#181818;stroke-width:1.0;"/><polygon fill="none" points="2546.5,91.525,2553.5,71.525,2560.5,91.525,2546.5,91.525" style="stroke:#181818;stroke-width:1.0;"/><text fill="#000000" font-family="sans-serif" font-size="13" lengthAdjust="spacing" textLength="47" x="2554.5" y="147.0669">inherits</text></g><!--reverse link UIViewController to PlatosViewController--><g id="link_UIViewController_PlatosViewController"><path codeLine="97" d="M444.867,320.175 C465.419,352.959 500.296,403.546 539.5,439 C557.465,455.247 577.672,470.6 598.389,484.719 " fill="none" id="UIViewController-backto-PlatosViewController" style="stroke:#181818;stroke-width:1.0;"/><polygon fill="none" points="438.688,323.488,434.253,302.768,450.642,316.2,438.688,323.488" style="stroke:#181818;stroke-width:1.0;"/><text fill="#000000" font-family="sans-serif" font-size="13" lengthAdjust="spacing" textLength="47" x="540.5" y="435.0669">inherits</text></g><!--reverse link UITableViewDataSource to PlatosViewController--><g id="link_UITableViewDataSource_PlatosViewController"><path codeLine="98" d="M652.159,321.31 C667.867,357.541 693.59,416.869 716.141,468.881 " fill="none" id="UITableViewDataSource-backto-PlatosViewController" style="stroke:#181818;stroke-width:1.0;"/><polygon fill="none" points="645.7,324.011,644.167,302.877,658.545,318.442,645.7,324.011" style="stroke:#181818;stroke-width:1.0;"/><text fill="#000000" font-family="sans-serif" font-size="13" lengthAdjust="spacing" textLength="47" x="700.5" y="435.0669">inherits</text></g><!--reverse link PlatoTableViewCellDelegate to PlatosViewController--><g id="link_PlatoTableViewCellDelegate_PlatosViewController"><path codeLine="99" d="M868.772,337.502 C852.309,373.721 829.457,423.995 809.073,468.839 " fill="none" id="PlatoTableViewCellDelegate-backto-PlatosViewController" style="stroke:#181818;stroke-width:1.0;stroke-dasharray:7.0,7.0;"/><polygon fill="none" points="862.442,334.51,877.091,319.2,875.187,340.304,862.442,334.51" style="stroke:#181818;stroke-width:1.0;"/><text fill="#000000" font-family="sans-serif" font-size="13" lengthAdjust="spacing" textLength="73" x="827.5" y="435.0669">confirms to</text></g><!--reverse link UISearchResultsUpdating to PlatosViewController--><g id="link_UISearchResultsUpdating_PlatosViewController"><path codeLine="100" d="M1118.49,315.993 C1093.87,337.535 1058.72,367.485 1026.5,392 C992.661,417.746 955.47,444.256 919.927,468.792 " fill="none" id="UISearchResultsUpdating-backto-PlatosViewController" style="stroke:#181818;stroke-width:1.0;"/><polygon fill="none" points="1114.06,310.569,1133.69,302.593,1123.32,321.07,1114.06,310.569" style="stroke:#181818;stroke-width:1.0;"/><text fill="#000000" font-family="sans-serif" font-size="13" lengthAdjust="spacing" textLength="47" x="985.5" y="435.0669">inherits</text></g><!--reverse link UITableViewCell to PlatoTableViewCell--><g id="link_UITableViewCell_PlatoTableViewCell"><path codeLine="101" d="M1685.68,87.334 C1708.68,115.505 1743.84,158.555 1775.51,197.341 " fill="none" id="UITableViewCell-backto-PlatoTableViewCell" style="stroke:#181818;stroke-width:1.0;"/><polygon fill="none" points="1680,91.444,1672.77,71.525,1690.84,82.589,1680,91.444" style="stroke:#181818;stroke-width:1.0;"/><text fill="#000000" font-family="sans-serif" font-size="13" lengthAdjust="spacing" textLength="47" x="1738.5" y="147.0669">inherits</text></g><!--reverse link UIViewController to PedidosViewController--><g id="link_UIViewController_PedidosViewController"><path codeLine="102" d="M428.355,323 C433.003,380.799 442.108,494.012 446.296,546.093 " fill="none" id="UIViewController-backto-PedidosViewController" style="stroke:#181818;stroke-width:1.0;"/><polygon fill="none" points="421.362,323.373,426.737,302.877,435.317,322.251,421.362,323.373" style="stroke:#181818;stroke-width:1.0;"/><text fill="#000000" font-family="sans-serif" font-size="13" lengthAdjust="spacing" textLength="47" x="438.5" y="435.0669">inherits</text></g><!--reverse link UIResponder to AppDelegate--><g id="link_UIResponder_AppDelegate"><path codeLine="103" d="M2972.8,90.264 C2983,114.348 2997.31,148.135 3011.17,180.843 " fill="none" id="UIResponder-backto-AppDelegate" style="stroke:#181818;stroke-width:1.0;"/><polygon fill="none" points="2966.22,92.672,2964.86,71.525,2979.11,87.211,2966.22,92.672" style="stroke:#181818;stroke-width:1.0;"/><text fill="#000000" font-family="sans-serif" font-size="13" lengthAdjust="spacing" textLength="47" x="2999.5" y="147.0669">inherits</text></g><!--reverse link UIApplicationDelegate to AppDelegate--><g id="link_UIApplicationDelegate_AppDelegate"><path codeLine="104" d="M3138.2,90.264 C3128,114.348 3113.69,148.135 3099.83,180.843 " fill="none" id="UIApplicationDelegate-backto-AppDelegate" style="stroke:#181818;stroke-width:1.0;"/><polygon fill="none" points="3131.89,87.211,3146.14,71.525,3144.78,92.672,3131.89,87.211" style="stroke:#181818;stroke-width:1.0;"/><text fill="#000000" font-family="sans-serif" font-size="13" lengthAdjust="spacing" textLength="47" x="3119.5" y="147.0669">inherits</text></g><!--SRC=[xLVDRkCs4BxhAPYzh0qaGJSjYi88qZgndKtW94Ra9EYfeCMnpPeY1PAoDztTlbEVeI_M8UKVMP6jPB6N0heOrd1-lXdE3-Sz2OU_zxlusxuV1bFEW42Ss6SIGpm2RG8pupAXciR4J2bJ2oudP4o5WU3zKhHxsmc281BK6FAkpoNG0J3Er92E13noM5o041qGCA4MtX5gI1KJEJqbZS4XkLI2WRnNh4aIhQoAb21dP-Gp2GZvEwBISaRP1Or7d3BQI9JnYbkharQJ15zNm0Q2sZsGTX-_2apYnDl__aETJmqk6NmQK3lTGh3BwxqXyTOl3ac7wba8z583oER6hbJnI4EVZa2G5dcuylyEyk4fEpCMaWIqfuRPVq_722BjIbhtmLR-johlwzUSqa4g3EP9uuzMqr7fWiwWfrLyoqSDJp5WGvIBB31aefB7gA5mLzvKEx8f5TwMabOh8K1dTxNpk29Q5i5Jx_NQ3U-tLPQAia1fe8B_HNLciU0QHZW2iUFG9qGNmuD7gDIdbrSvHwCTplgAiYmUZl34XMXZzAXUoTiLG2J8r9NYtVXUBSoL335qNCcNR0X6z9H6hhPT8tnBYNGGe_58VPWtdpwiuI49Py_d8eKcCLQdaIsc8VePMeqD8aiV4scUH0XrYvveG1gIEYf5xDu9dgWrJmxFTNXtUnKdIjlbnUS95LVDFPj7RvnO0o7sUBHTaJUKovByUackCBPrfpdzeSNK3j4f0LP9htkRLA4toIMwIoB_wRBeY4jki_JvR50ZZxwwzgo15JkUAQkVaeCA96d276vCq6Xw3oOLrZJ6IcTfDjOHehiDUs2ZAR3b-KRtgJTuTh2l18rNdSFZUrE1M5v0tr0gbbi1M2iVWJBG1SQLZYNHO3j_JR6zPWIyd38xXiytj_silCfESWLPTkm1- -w_17vG60Ax9wHl_oCSYJ9p_plE0BEp_PllKg7OTBUU0Rdl2etu4CBNa0_Ya__heq2JHF28khn1nn1d3olLJFiqbT4Kg_w9s-bTujCgYqs-JsMnoQbmOm6hYKyazW0-XtL0DopeL5TYEpodqMoYLIfP2PFJuxamOs4d5wewXqZ5iDEOqpC47NE9yLbFEdmbSXp-qhhRmDRfY_Ss7Boa-wkdSt04-6IpcsZBvxlHdvWBvFJByN7rsx15k9o2vjOKHVUyuN92kSwJLTgNewFTpwyjmMBAESazZv5oepXMQQXI7S5R55G_cNq4zkcAb1np7HjYLN2XcDEI8SWD-YBaSwgB3fTCn-eWbKsSLuQdGdJVmtsT56PlC5Q3PZcu7joiSo-HjqBVf5D9Gtzb8ksrX00JXVrvAP5lLbjyxLnHRuAnMoBu3IGBthRzrHjVlV7L6r-zyTKRNxtnrHjVlV7L6r-zyTKRNxtnrHlV_sZZGzJIFjpqoToLBhvEFXoV_73ou_674LXwqdYGCwaM4aCN9nnpn_8Oca7ZSj0d9himXlMk-IXrXfl1DPrJSfzAnzSYxginl6cIiBiYagwSSwraZ3qYk7wyoPZ8HsN3H5dF_FDFH-VSaX0qOYAFDq47nXGl2KKZnV2IiFyEUqU_17qg9ocTe26GcDreG3_ZMVWV]--></g></svg>